<svg xmlns="http://www.w3.org/2000/svg" width="21.414" height="14.908" viewBox="0 0 21.414 14.908">
  <g id="Group_503" data-name="Group 503" transform="translate(-6936.944 -1298.887)">
    <path id="Path_960" data-name="Path 960" d="M6963.14,1310.284c1.237,0,2.457,0,3.676,0,.14,0,.144-.092.175-.175a2.682,2.682,0,0,1,2.074-1.8,2.736,2.736,0,0,1,3.148,1.791.225.225,0,0,0,.266.183c.289-.012.578,0,.878,0,0-.081.009-.142.009-.2,0-.986,0-1.972,0-2.957a.53.53,0,0,0-.1-.289c-.231-.316-.48-.618-.713-.933a.31.31,0,0,0-.285-.135q-2.436.006-4.872,0a.772.772,0,0,1-.867-.861q0-2.123,0-4.246v-.243h-.264q-5,0-10.009-.006a1.193,1.193,0,0,1-.553-.147.715.715,0,0,1-.305-.795.749.749,0,0,1,.618-.566,1.815,1.815,0,0,1,.264-.017h10.881a.79.79,0,0,1,.892.9v.445h.211c.822,0,1.643.005,2.464,0a.809.809,0,0,1,.8.489c.6,1.208,1.193,2.423,1.828,3.614a10.23,10.23,0,0,0,.9,1.281c.754,1,.622.6.63,1.849.008,1.163,0,2.325,0,3.488a.758.758,0,0,1-.847.855c-.537,0-1.074,0-1.611,0a.188.188,0,0,0-.218.146,2.764,2.764,0,0,1-5.216,0,.18.18,0,0,0-.2-.144q-1.763.007-3.526,0a.178.178,0,0,0-.2.146,2.764,2.764,0,0,1-5.21.015.2.2,0,0,0-.226-.162c-.474.009-.949-.014-1.421.009a.778.778,0,0,1-.836-.76.767.767,0,0,1,.847-.765c.461,0,.922,0,1.384,0a.212.212,0,0,0,.243-.166,2.673,2.673,0,0,1,2.4-1.851,2.734,2.734,0,0,1,2.8,1.772C6963.08,1310.119,6963.107,1310.2,6963.14,1310.284Zm8.445-6.049c-.412-.818-.805-1.607-1.209-2.391a.258.258,0,0,0-.2-.088c-.612-.007-1.225,0-1.837,0h-.278v2.483Zm-11.133,8.028a1.239,1.239,0,1,0-1.232-1.245A1.246,1.246,0,0,0,6960.452,1312.263Zm9.146,0a1.24,1.24,0,1,0-1.239-1.241A1.249,1.249,0,0,0,6969.6,1312.263Z" transform="translate(-16.532 0)" fill="#116ca5"/>
    <path id="Path_961" data-name="Path 961" d="M6951.19,1325.572h2.765a.763.763,0,1,1,.009,1.52q-2.812,0-5.625,0a.763.763,0,0,1-.74-.542.738.738,0,0,1,.323-.855.966.966,0,0,1,.446-.118C6949.309,1325.566,6950.25,1325.572,6951.19,1325.572Z" transform="translate(-9.529 -23.935)" fill="#116ca5"/>
    <path id="Path_962" data-name="Path 962" d="M6940.561,1352.567h-2.84a.761.761,0,1,1-.015-1.522q2.859-.006,5.718,0a.745.745,0,0,1,.75.764.736.736,0,0,1-.754.754C6942.467,1352.572,6941.514,1352.567,6940.561,1352.567Z" transform="translate(0 -46.783)" fill="#116ca5"/>
    <path id="Path_963" data-name="Path 963" d="M6949.886,1376.66c.486,0,.973,0,1.459,0a.766.766,0,0,1,.829.766.782.782,0,0,1-.842.758c-1,0-2,0-2.993,0a.758.758,0,0,1-.763-.676.748.748,0,0,1,.517-.807,1.091,1.091,0,0,1,.317-.038C6948.9,1376.658,6949.394,1376.66,6949.886,1376.66Z" transform="translate(-9.529 -69.762)" fill="#116ca5"/>
  </g>
</svg>