<svg xmlns="http://www.w3.org/2000/svg" width="24.953" height="21.151" viewBox="0 0 24.953 21.151">
  <g id="Group_730" data-name="Group 730" transform="translate(-1003.571 -1147.136)">
    <path id="Path_1057" data-name="Path 1057" d="M1028.524,1156.926q0,4.49,0,8.981c0,.634-.11.77-.743.853q-3.956.521-7.913,1.037c-1.218.16-2.432.358-3.654.476a8.8,8.8,0,0,1-1.569-.1q-2.242-.189-4.484-.387l-5.067-.438c-.3-.025-.591-.052-.887-.072-.464-.03-.635-.2-.635-.67q0-3.638,0-7.276,0-5.483,0-10.965c0-.586.181-.773.764-.724,1.7.14,3.395.292,5.092.438l4.383.376c.7.06,1.4.164,2.1.172a13.018,13.018,0,0,0,1.792-.149c2.143-.273,4.285-.559,6.427-.842,1.218-.16,2.436-.32,3.653-.487.531-.073.738.093.738.615Q1028.524,1152.347,1028.524,1156.926Zm-1.082-8.659-10.824,1.407v17.433l10.824-1.407Zm-11.965,18.949v-17.487l-10.812-.972v17.487Z" transform="translate(0)" fill="#fff"/>
    <path id="Path_1058" data-name="Path 1058" d="M1026.275,1199.435l4.2.38c.97.089,1.941.177,2.911.27a.52.52,0,0,1,.533.577.544.544,0,0,1-.648.492q-2.039-.178-4.077-.367-1.494-.136-2.987-.278c-.383-.037-.563-.245-.531-.6A.5.5,0,0,1,1026.275,1199.435Z" transform="translate(-19.715 -46.653)" fill="#fff"/>
    <path id="Path_1059" data-name="Path 1059" d="M1033.117,1281.106l-6.1-.557c-.27-.025-.541-.044-.811-.066a.518.518,0,0,1-.534-.6.507.507,0,0,1,.617-.48l7.065.636c.376.034.59.258.562.583a.544.544,0,0,1-.669.488l-.127-.012Z" transform="translate(-19.711 -117.987)" fill="#fff"/>
    <path id="Path_1060" data-name="Path 1060" d="M1033.2,1241.268l-3.991-.328-2.912-.238c-.461-.037-.664-.236-.626-.616a.507.507,0,0,1,.573-.48q2.315.209,4.63.425c.81.074,1.619.15,2.429.221.407.035.628.23.613.557S1033.677,1241.287,1033.2,1241.268Z" transform="translate(-19.711 -82.485)" fill="#fff"/>
  </g>
</svg>