<svg xmlns="http://www.w3.org/2000/svg" width="18.866" height="21.819" viewBox="0 0 18.866 21.819">
  <g id="Group_606" data-name="Group 606" transform="translate(-539.503 -344.683)">
    <path id="Path_1133" data-name="Path 1133" d="M563.05,360.593c-1.6-3.9-3.2-7.807-4.861-11.686a2.124,2.124,0,0,0-1.106-1.015c-1.811-.687-3.665-1.257-5.49-1.908a1.908,1.908,0,0,0-2.16.259,8.966,8.966,0,0,0-.722-.544,12.311,12.311,0,0,0-1.52-.853,1.262,1.262,0,0,0-1.652.335,1.282,1.282,0,0,0,.149,1.684,8.394,8.394,0,0,0,1.195,1.158c.382.317.816.573,1.255.875-.561,1.137-1.152,2.208-1.615,3.332a2.205,2.205,0,0,0-.086,1.5c1.58,3.94,3.22,7.856,4.856,11.774a1.377,1.377,0,0,0,2,.832q4.463-1.817,8.909-3.677A1.407,1.407,0,0,0,563.05,360.593Zm-16.845-14.083a.676.676,0,0,1,.79-1.086,11.277,11.277,0,0,1,2,1.348l-.709,1.471C547.761,347.789,546.716,346.979,546.206,346.511Zm15.613,15.572q-4.313,1.768-8.616,3.559c-.7.293-1.086.092-1.363-.587-1.569-3.832-3.162-7.653-4.725-11.487a1.261,1.261,0,0,1-.035-.9c.8-1.7,1.653-3.383,2.537-5.169.646.583,1.16.969.642,1.9a1.491,1.491,0,0,0,1.073,2.05,1.6,1.6,0,0,0,1.971-1.263,1.577,1.577,0,0,0-1.409-1.861c-.735-.1-.935-.266-1.956-1.728a3.437,3.437,0,0,1,1.07-.048c1.946.625,3.885,1.276,5.809,1.967a1.452,1.452,0,0,1,.765.715c1.619,3.84,3.2,7.7,4.8,11.542A.866.866,0,0,1,561.819,362.083Zm-10.946-12.216a.858.858,0,1,1,.858.858A.858.858,0,0,1,550.872,349.867Z" transform="translate(-4.856)" fill="#116ca5"/>
    <path id="Path_1134" data-name="Path 1134" d="M542.328,388.875c-.9.07-1.065-.073-1.15-.983-.343-3.7-.7-7.4-1-11.1a1.774,1.774,0,0,1,.382-1.118c.488-.625,1.091-1.16,1.612-1.762.124-.143.112-.4.162-.609-.225.054-.519.035-.664.174-.4.383-.8.774-1.174,1.184a3.8,3.8,0,0,0-.751,1.222,3.75,3.75,0,0,0-.222,1.675q.046.48.092.959c.309,3.249.611,6.5.932,9.747a1.282,1.282,0,0,0,1.535,1.321c.9-.05,1.8-.141,2.7-.258l-.064-.642C543.915,388.719,543.122,388.813,542.328,388.875Z" transform="translate(0 -24.033)" fill="#116ca5"/>
    <path id="Path_1135" data-name="Path 1135" d="M597.255,402.664c-.477,1.064-.911,2.146-1.358,3.223-.488,1.175-.987,2.345-1.45,3.529l.626.257c.942-2.249,1.879-4.5,2.789-6.761Z" transform="translate(-46.139 -48.689)" fill="#116ca5"/>
    <path id="Path_1136" data-name="Path 1136" d="M614.386,422.606a1.457,1.457,0,0,0-1.43,1.411,1.425,1.425,0,0,0,1.45,1.455,1.378,1.378,0,0,0,1.413-1.4A1.418,1.418,0,0,0,614.386,422.606Zm0,2.291a.858.858,0,1,1,.858-.858A.858.858,0,0,1,614.387,424.9Z" transform="translate(-61.681 -65.435)" fill="#116ca5"/>
    <path id="Path_1137" data-name="Path 1137" d="M582.049,410.151a1.426,1.426,0,0,0-1.3-1.522,1.466,1.466,0,0,0-1.571,1.342,1.425,1.425,0,0,0,1.313,1.5A1.379,1.379,0,0,0,582.049,410.151Zm-1.434.758a.858.858,0,1,1,.858-.858A.858.858,0,0,1,580.615,410.909Z" transform="translate(-33.316 -53.693)" fill="#116ca5"/>
  </g>
</svg>