<svg xmlns="http://www.w3.org/2000/svg" width="17.541" height="11.54" viewBox="0 0 17.541 11.54">
  <g id="Group_531" data-name="Group 531" transform="translate(-753.137 -1610.996)">
    <path id="Path_1045" data-name="Path 1045" d="M761.892,1622.536q-3.532,0-7.063,0a1.5,1.5,0,0,1-1.69-1.693q0-4.077,0-8.154a1.5,1.5,0,0,1,1.693-1.691q7.09,0,14.179,0a1.492,1.492,0,0,1,1.664,1.667q0,4.1,0,8.206a1.492,1.492,0,0,1-1.667,1.664Q765.45,1622.538,761.892,1622.536Zm-7.951-6.857c0,1.763,0,3.475,0,5.187,0,.667.2.869.868.87q7.094.005,14.188,0c.692,0,.873-.2.874-.916q0-2.339,0-4.678c0-.149-.02-.3-.031-.464Zm0-2.434H769.82c.18-1.238,0-1.451-1.19-1.451q-6.861,0-13.722,0c-.815,0-.97.163-.967.98C753.941,1612.913,753.941,1613.051,753.941,1613.245Z" transform="translate(0 0)" fill="#116ca5"/>
    <path id="Path_1046" data-name="Path 1046" d="M786.873,1673.5a1.6,1.6,0,1,1-3.194-.069,1.6,1.6,0,0,1,3.194.069Z" transform="translate(-27.367 -54.554)" fill="#116ca5"/>
    <path id="Path_1047" data-name="Path 1047" d="M768.769,1675.064a1.519,1.519,0,0,1-1.7-.634,1.666,1.666,0,0,1,.06-1.892,1.491,1.491,0,0,1,1.648-.539,5.248,5.248,0,0,0-.474,1.508A5.517,5.517,0,0,0,768.769,1675.064Z" transform="translate(-12.248 -54.599)" fill="#116ca5"/>
    <path id="Path_1048" data-name="Path 1048" d="M884.82,1683.489a4.135,4.135,0,0,1,.826.016c.142.029.367.245.348.333-.033.156-.215.388-.349.4a11.783,11.783,0,0,1-1.708,0c-.132-.009-.366-.246-.348-.338a.587.587,0,0,1,.354-.4,4.067,4.067,0,0,1,.877-.018Z" transform="translate(-116.89 -64.94)" fill="#116ca5"/>
    <path id="Path_1049" data-name="Path 1049" d="M826.557,1684.251a3.173,3.173,0,0,1-.773-.017c-.157-.04-.274-.24-.409-.368.134-.129.26-.358.4-.369a10.569,10.569,0,0,1,1.656,0c.142.011.267.237.4.364-.132.13-.246.34-.4.373A4.221,4.221,0,0,1,826.557,1684.251Z" transform="translate(-64.729 -64.936)" fill="#116ca5"/>
    <path id="Path_1050" data-name="Path 1050" d="M855.556,1684.255a3.663,3.663,0,0,1-.826-.017c-.156-.037-.272-.243-.405-.372.136-.127.265-.353.41-.365a10.589,10.589,0,0,1,1.657,0c.141.011.266.24.4.368-.135.128-.252.331-.408.368A3.714,3.714,0,0,1,855.556,1684.255Z" transform="translate(-90.669 -64.94)" fill="#116ca5"/>
  </g>
</svg>



