<svg xmlns="http://www.w3.org/2000/svg" width="33.815" height="33.805" viewBox="0 0 33.815 33.805">
  <g id="Group_3" data-name="Group 3" transform="translate(0)">
    <path id="Path_6" data-name="Path 6" d="M1273.831,772.832q-.962-.947-1.916-1.9a1.543,1.543,0,0,1-.478-.735c-.731-2.979-1.48-5.955-2.224-8.931-.026-.1-.059-.2-.088-.3h-24.279c-.133.721-.269,1.429-.369,2.156l1.493.257.167-.873h21.8l.615,2.461q.305,1.221.609,2.444c.2.808.419,1.612.606,2.468l-4.214-1.055.666-4.692-1.519-.216c-.29,2.029-.576,4.033-.862,6.041a1.314,1.314,0,0,0,.162.068q1.031.256,2.064.509c.563.137,1.128.265,1.689.406.706.177,1.407.377,2.116.542a1.409,1.409,0,0,1,1.017.6.62.62,0,0,0,.106.105c.4.4.789.8,1.191,1.185a.392.392,0,0,1,.13.37c-.183,1.418-.357,2.837-.535,4.255-.026.206-.06.41-.091.618H1270a3.886,3.886,0,0,0-1.359-2.21,3.855,3.855,0,0,0-4.608-.163,3.88,3.88,0,0,0-1.575,2.371H1253.1a3.793,3.793,0,0,0-3.378-3.033,3.838,3.838,0,0,0-4.2,3.031,12.253,12.253,0,0,1-2.193-.04l.529-3.022h2.374v-1.508c-.452-.064-5.916-.039-6.115.023v1.489h2.175l-.8,4.608h4.035a3.9,3.9,0,0,0,3.808,3.075,3.794,3.794,0,0,0,2.168-.687,3.883,3.883,0,0,0,1.58-2.365h9.354a3.88,3.88,0,0,0,3.655,3.049,3.741,3.741,0,0,0,2.167-.589,3.919,3.919,0,0,0,1.735-2.489h3.037c.025-.171.048-.308.065-.446q.2-1.562.391-3.125.216-1.726.437-3.451A.314.314,0,0,0,1273.831,772.832Zm-24.453,8.852a2.306,2.306,0,1,1,2.253-2.328A2.3,2.3,0,0,1,1249.378,781.684Zm16.855,0a2.305,2.305,0,1,1,2.3-2.312A2.3,2.3,0,0,1,1266.233,781.684Z" transform="translate(-1240.126 -749.421)"/>
    <path id="Path_7" data-name="Path 7" d="M1350.628,696.4a7.72,7.72,0,0,1,.175-3.321,6.9,6.9,0,0,1,1.64-2.826,6.827,6.827,0,0,1,2.779-1.774,6.9,6.9,0,0,1,7.56,2.167,6.725,6.725,0,0,1,1.555,3.952,6.892,6.892,0,0,1-1.65,4.946l1.148.986a8.439,8.439,0,0,0-10.464-12.9,8.323,8.323,0,0,0-4.18,9.086Z" transform="translate(-1332.102 -686.578)"/>
    <path id="Path_8" data-name="Path 8" d="M1242.635,787.117c.415,0,.83,0,1.269,0l-.23,1.4c.535.076,1.012.2,1.508.238l.293-1.643h6.53c1.09,0,2.18,0,3.271,0s2.171.012,3.251-.009v-1.491c-.452-.066-18.183-.042-18.4.023v1.478h2.5Z" transform="translate(-1240.13 -770.218)"/>
    <path id="Path_9" data-name="Path 9" d="M1242.939,818.324l1.452.268.291-1.646h7.713a6.2,6.2,0,0,0-.023-1.514h-12.223v1.531h2.981A7.2,7.2,0,0,0,1242.939,818.324Z" transform="translate(-1240.146 -795.442)"/>
    <path id="Path_10" data-name="Path 10" d="M1398.63,706.535v6.086c.361.059,5.119.047,5.331-.01v-1.492h-3.823v-4.583Z" transform="translate(-1374.04 -703.439)"/>
  </g>
</svg>