<svg xmlns="http://www.w3.org/2000/svg" width="27.01" height="19.199" viewBox="0 0 27.01 19.199">
  <path id="Path_1018" data-name="Path 1018" d="M309.485,1203.254H321.78c.924,0,1.175.249,1.175,1.175q0,8.377,0,16.755c0,.951-.314,1.267-1.261,1.268q-12.234,0-24.469,0c-.976,0-1.278-.311-1.278-1.312q0-8.347,0-16.694c0-.894.3-1.191,1.184-1.191Zm-11.567,2.834v14.388h23.075v-14.37c-.232.167-.408.288-.577.418l-10.027,7.709c-.83.638-1.051.635-1.9-.014q-1.433-1.1-2.864-2.2Zm11.533,6.468,9.651-7.426H299.8Z" transform="translate(-295.945 -1203.254)" fill="#116ca5"/>
</svg>