<svg xmlns="http://www.w3.org/2000/svg" width="34.797" height="51.396" viewBox="0 0 34.797 51.396">
  <g id="Group_930" data-name="Group 930" transform="translate(-62.682 -546.604)">
    <path id="Path_1266" data-name="Path 1266" d="M-1231.786-142.805c.048-14.414,7.836-25.762,17.62-25.673,9.454.085,17.221,11.742,17.177,25.78-.045,14.264-7.907,25.748-17.606,25.614C-1224.1-117.215-1231.8-128.648-1231.786-142.805Zm1.685.4c-.045,12.1,7.062,23,15.937,22.839,8.5-.156,15.553-10.726,15.487-23.353-.068-12.931-7.16-23.112-16.052-23.045C-1223.24-165.9-1230.154-155.3-1230.1-142.4Z" transform="translate(1294.468 715.083)" fill="#116ca5"/>
    <path id="Path_1267" data-name="Path 1267" d="M-1192.747-87.861c-4.629.02-7.779-3.163-9.191-6.676a.816.816,0,0,1,.448-1.157c.535-.228.887.029,1.195.525a17.319,17.319,0,0,0,2.33,3.428c3.608,3.5,9.2,2.617,11.878-1.776.321-.527.57-1.1.838-1.656a.852.852,0,0,1,1.2-.522.821.821,0,0,1,.433,1.171C-1185-91.149-1188.144-87.821-1192.747-87.861Z" transform="translate(1272.847 674.566)" fill="#116ca5"/>
    <path id="Path_1268" data-name="Path 1268" d="M-1153.276-127.125a2.181,2.181,0,0,1-2.239-2.177,2.2,2.2,0,0,1,2.2-2.222,2.193,2.193,0,0,1,2.236,2.184A2.187,2.187,0,0,1-1153.276-127.125Z" transform="translate(1239.056 693.761)" fill="#116ca5"/>
    <path id="Path_1269" data-name="Path 1269" d="M-1193.394-129.34a2.183,2.183,0,0,1-2.057,2.206,2.391,2.391,0,0,1-2.371-2.254,2.19,2.19,0,0,1,2.2-2.152A2.2,2.2,0,0,1-1193.394-129.34Z" transform="translate(1269.793 693.772)" fill="#116ca5"/>
  </g>
</svg>