<svg xmlns="http://www.w3.org/2000/svg" width="34.782" height="51.381" viewBox="0 0 34.782 51.381">
  <g id="Group_932" data-name="Group 932" transform="translate(-65.743 -690.968)">
    <path id="Path_1258" data-name="Path 1258" d="M-880.962-147.331c-.007,14.356-7.548,24.788-15.959,25.733-10.98,1.233-18.878-11.978-18.823-25.676.057-14.011,7.816-25.569,17.346-25.624C-888.827-172.954-880.992-161.466-880.962-147.331Zm-17.185,23.348c8.769-.041,15.7-10.852,15.533-23.711-.165-12.828-7.395-22.939-16.277-22.683-8.411.242-15.273,10.924-15.146,23.577C-913.91-134.076-906.723-123.756-898.147-123.982Z" transform="translate(981.487 863.866)"/>
    <path id="Path_1259" data-name="Path 1259" d="M-874.307-83.036q-3.848,0-7.7,0c-.266,0-.585.071-.785-.048-.274-.164-.615-.464-.638-.732a1.246,1.246,0,0,1,.495-.84c.168-.142.506-.111.767-.112q7.805-.008,15.611,0c.1,0,.194,0,.291,0,.6-.009,1.065.191,1.112.868.037.526-.4.863-1.1.864C-868.934-83.033-871.62-83.036-874.307-83.036Z" transform="translate(957.437 809.625)"/>
    <path id="Path_1260" data-name="Path 1260" d="M-831.841-133.319a2.165,2.165,0,0,1,2.2,2.194,2.19,2.19,0,0,1-2.205,2.2,2.187,2.187,0,0,1-2.2-2.2A2.16,2.16,0,0,1-831.841-133.319Z" transform="translate(920.684 839.948)"/>
    <path id="Path_1261" data-name="Path 1261" d="M-877.1-128.916a2.2,2.2,0,0,1-2.214-2.2,2.17,2.17,0,0,1,2.2-2.2,2.169,2.169,0,0,1,2.213,2.188A2.189,2.189,0,0,1-877.1-128.916Z" transform="translate(954.375 839.941)"/>
  </g>
</svg>