<svg xmlns="http://www.w3.org/2000/svg" width="27.996" height="27.099" viewBox="0 0 27.996 27.099">
  <g id="Group_584" data-name="Group 584" transform="translate(-658.989 368.909)">
    <path id="Path_1119" data-name="Path 1119" d="M682.858-355.755h-1.391v-1.735h1.609a3.905,3.905,0,0,1,3.905,3.905v.58c0,5.785.013,10.948-.005,16.733a3.743,3.743,0,0,1-4.037,4q-9.9.014-19.793,0c-2.661-.005-4.137-1.469-4.147-4.131-.02-5.421,0-9.777,0-15.2,0-3.9.923-5.891,5.5-5.891v1.745h-1.233a2.342,2.342,0,0,0-2.342,2.326l-.012,1.711h24.3l-.018-1.732A2.335,2.335,0,0,0,682.858-355.755Zm-1.391-1.77,3.6,7.869H660.95c0,4.711-.046,9.351.037,13.988.017.981.846,1.5,1.889,1.5,6.76,0,13.519.007,20.279-.011a1.734,1.734,0,0,0,1.9-1.787C685.094-340.488,685.069-345.015,685.069-349.656Z" transform="translate(0 -9.546)" fill="#116ca5"/>
    <path id="Path_1120" data-name="Path 1120" d="M726.1-355.572h-9.4v-1.735h9.4Z" transform="translate(-48.399 -9.729)" fill="#116ca5"/>
    <path id="Path_1121" data-name="Path 1121" d="M689.662-296.162c2.515.017,2.519-.353,2.51,2.456-.009,2.846.11,2.625-2.62,2.619-2.511-.006-2.5,0-2.513-2.484C687.026-296.506,686.962-296.149,689.662-296.162Zm.853,1.675h-1.78v1.712h1.78Z" transform="translate(-23.521 -60.998)" fill="#116ca5"/>
    <path id="Path_1122" data-name="Path 1122" d="M732.429-296.162c2.515.017,2.519-.353,2.51,2.456-.009,2.846.11,2.625-2.62,2.619-2.511-.006-2.5,0-2.513-2.484C729.793-296.506,729.729-296.149,732.429-296.162Zm.853,1.675H731.5v1.712h1.78Z" transform="translate(-59.385 -60.998)" fill="#116ca5"/>
    <path id="Path_1123" data-name="Path 1123" d="M689.662-256.531c2.515.017,2.519-.354,2.51,2.456-.009,2.846.11,2.625-2.62,2.619-2.511-.006-2.5,0-2.513-2.484C687.026-256.875,686.962-256.518,689.662-256.531Zm.853,1.675h-1.78v1.712h1.78Z" transform="translate(-23.521 -94.232)" fill="#116ca5"/>
    <path id="Path_1124" data-name="Path 1124" d="M732.429-256.531c2.515.017,2.519-.354,2.51,2.456-.009,2.846.11,2.625-2.62,2.619-2.511-.006-2.5,0-2.513-2.484C729.793-256.875,729.729-256.518,732.429-256.531Zm.853,1.675H731.5v1.712h1.78Z" transform="translate(-59.385 -94.232)" fill="#116ca5"/>
    <path id="Path_1125" data-name="Path 1125" d="M775.313-296.162c2.515.017,2.519-.353,2.51,2.456-.009,2.846.11,2.625-2.62,2.619-2.511-.006-2.5,0-2.513-2.484C772.677-296.506,772.613-296.149,775.313-296.162Zm.853,1.675h-1.78v1.712h1.78Z" transform="translate(-95.347 -60.998)" fill="#116ca5"/>
    <rect id="Rectangle_667" data-name="Rectangle 667" width="2.345" height="5.359" rx="1.173" transform="translate(665.215 -368.909)" fill="#116ca5"/>
    <rect id="Rectangle_668" data-name="Rectangle 668" width="2.345" height="5.359" rx="1.173" transform="translate(678.413 -368.909)" fill="#116ca5"/>
  </g>
</svg>