<svg xmlns="http://www.w3.org/2000/svg" width="19.565" height="15.977" viewBox="0 0 21.565 17.977">
  <g id="Group_526" data-name="Group 526" transform="translate(-362.118 -1458.808)">
    <path id="Path_1025" data-name="Path 1025" d="M375.551,1497.883h3.03c0-.9-.017-1.777.007-2.65a6.091,6.091,0,0,1,.156-1.485,3.1,3.1,0,0,1,3.365-2.21,3.145,3.145,0,0,1,2.785,3.112c.028,1.059.005,2.12.005,3.222h3.037v-6.906c0-.14,0-.281,0-.421,0-.416.166-.738.608-.734s.6.317.6.74q-.008,3.487,0,6.974c0,1.551.142,1.621-1.624,1.6-.861-.012-1.722,0-2.584,0-1.18,0-1.233-.052-1.233-1.2,0-1.022.006-2.044,0-3.066a1.962,1.962,0,1,0-3.908-.014c-.013,1.142,0,2.284-.006,3.427,0,.68-.172.848-.86.852q-1.863.012-3.725,0c-.663-.005-.845-.2-.847-.875,0-2.525,0-5.05,0-7.575,0-.445.091-.852.612-.853s.6.412.6.855c-.008,2.164,0,4.328,0,6.493Z" transform="translate(-8.811 -22.338)" fill="#fff"/>
    <path id="Path_1026" data-name="Path 1026" d="M372.954,1460.147l-6.9,5.5q-1.363,1.087-2.726,2.174c-.343.275-.719.458-1.051.052s-.052-.729.288-1q4.89-3.894,9.77-7.8a.83.83,0,0,1,1.214-.01c3.248,2.611,6.514,5.2,9.755,7.82a1.1,1.1,0,0,1,.38.83c-.056.469-.563.53-1.041.15q-2.449-1.942-4.888-3.9Z" transform="translate(0 0)" fill="#fff"/>
  </g>
</svg>