<svg xmlns="http://www.w3.org/2000/svg" width="21.266" height="14.751" viewBox="0 0 21.266 14.751">
  <g id="Group_494" data-name="Group 494" transform="translate(0 0)">
    <g id="Group_480" data-name="Group 480">
      <path id="Path_964" data-name="Path 964" d="M6723.248,1660.306h-3.706a1.336,1.336,0,0,1-1.334-1.335v-3.784a1.336,1.336,0,0,1,1.334-1.335h3.706a1.336,1.336,0,0,1,1.335,1.335v3.784A1.336,1.336,0,0,1,6723.248,1660.306Zm-3.706-5.62a.5.5,0,0,0-.5.5v3.784a.5.5,0,0,0,.5.5h3.706a.5.5,0,0,0,.5-.5v-3.784a.5.5,0,0,0-.5-.5Z" transform="translate(-6718.208 -1653.852)" fill="#116ca5"/>
    </g>
    <g id="Group_481" data-name="Group 481" transform="translate(7.744 0.967)">
      <path id="Path_965" data-name="Path 965" d="M6759.153,1658.161h-12.687a.417.417,0,0,1,0-.835h12.687a.417.417,0,1,1,0,.835Z" transform="translate(-6746.05 -1657.327)" fill="#116ca5"/>
    </g>
    <g id="Group_482" data-name="Group 482" transform="translate(7.744 4.326)">
      <path id="Path_966" data-name="Path 966" d="M6754.537,1670.239h-8.07a.417.417,0,0,1,0-.834h8.07a.417.417,0,1,1,0,.834Z" transform="translate(-6746.05 -1669.404)" fill="#116ca5"/>
    </g>
    <g id="Group_483" data-name="Group 483" transform="translate(0 8.297)">
      <path id="Path_967" data-name="Path 967" d="M6723.248,1690.135h-3.706a1.336,1.336,0,0,1-1.334-1.335v-3.784a1.336,1.336,0,0,1,1.334-1.335h3.706a1.336,1.336,0,0,1,1.335,1.335v3.784A1.336,1.336,0,0,1,6723.248,1690.135Zm-3.706-5.62a.5.5,0,0,0-.5.5v3.784a.5.5,0,0,0,.5.5h3.706a.5.5,0,0,0,.5-.5v-3.784a.5.5,0,0,0-.5-.5Z" transform="translate(-6718.208 -1683.681)" fill="#116ca5"/>
    </g>
    <g id="Group_484" data-name="Group 484" transform="translate(7.744 9.263)">
      <path id="Path_968" data-name="Path 968" d="M6759.153,1687.99h-12.687a.417.417,0,0,1,0-.834h12.687a.417.417,0,1,1,0,.834Z" transform="translate(-6746.05 -1687.156)" fill="#116ca5"/>
    </g>
    <g id="Group_485" data-name="Group 485" transform="translate(7.744 12.622)">
      <path id="Path_969" data-name="Path 969" d="M6754.537,1700.067h-8.07a.417.417,0,0,1,0-.834h8.07a.417.417,0,1,1,0,.834Z" transform="translate(-6746.05 -1699.232)" fill="#116ca5"/>
    </g>
  </g>
</svg>