<svg xmlns="http://www.w3.org/2000/svg" width="20.216" height="22.781" viewBox="0 0 20.216 22.781">
  <g id="Group_503" data-name="Group 503" transform="translate(-596.286 -879.762)">
    <path id="Path_981" data-name="Path 981" d="M596.29,891.153c0-2.631,0-5.263,0-7.894a3.186,3.186,0,0,1,3.522-3.5q6.579,0,13.157,0a3.183,3.183,0,0,1,3.524,3.493c.005,3.644.017,7.287,0,10.931a8.279,8.279,0,0,1-8.239,8.343c-2.856.019-5.713.013-8.569.007a3.151,3.151,0,0,1-3.389-3.355C596.28,896.506,596.29,893.83,596.29,891.153Zm10.143-10.142c-2.27,0-4.54-.012-6.809,0a1.887,1.887,0,0,0-2.073,2.1q0,8.023,0,16.045a1.89,1.89,0,0,0,2.054,2.121q4.247.026,8.495,0a1.952,1.952,0,0,0,2.119-2.031,3.119,3.119,0,0,1,3.012-3.038,1.888,1.888,0,0,0,2.005-2.164q0-5.394,0-10.787c0-1.559-.693-2.251-2.264-2.254C610.792,881.007,608.612,881.011,606.433,881.011Zm4.862,19.545a6.164,6.164,0,0,0,3.2-3.228C612.362,897.59,611.58,897.282,611.295,900.556Z" transform="translate(0 0)" fill="#116ca5"/>
    <path id="Path_982" data-name="Path 982" d="M634.569,922.506c-1.416,0-2.833-.007-4.249,0-.44,0-.791-.118-.788-.607s.35-.63.787-.63q4.25,0,8.5,0c.437,0,.784.152.787.629s-.346.611-.787.608C637.4,922.5,635.985,922.506,634.569,922.506Z" transform="translate(-28.176 -35.18)" fill="#116ca5"/>
    <path id="Path_983" data-name="Path 983" d="M634.565,947.389c-1.393,0-2.786-.006-4.179,0-.448,0-.858-.073-.847-.614.011-.524.419-.622.865-.622q4.179,0,8.359,0c.45,0,.849.114.846.64,0,.545-.424.6-.865.6C637.351,947.384,635.958,947.389,634.565,947.389Z" transform="translate(-28.181 -56.269)" fill="#116ca5"/>
    <path id="Path_984" data-name="Path 984" d="M633.3,972.269c-.988,0-1.975,0-2.963,0-.426,0-.8-.1-.807-.594s.347-.644.772-.645q3-.008,5.992,0c.419,0,.78.145.771.644s-.388.594-.8.593Z" transform="translate(-28.176 -77.346)" fill="#116ca5"/>
  </g>
</svg>