<svg xmlns="http://www.w3.org/2000/svg" width="21.437" height="23.822" viewBox="0 0 21.437 23.822">
  <g id="Group_537" data-name="Group 537" transform="translate(-1354.992 -1226.007)">
    <path id="Path_1064" data-name="Path 1064" d="M1399.593,1270q-2.383,0-4.765,0-2.439,0-4.877,0c-.61,0-.9.226-.905.672s.3.674.9.674q4.821,0,9.642,0c.607,0,.905-.229.905-.673S1400.2,1270,1399.593,1270Z" transform="translate(-30.227 -39.044)" fill="#116ca5"/>
    <path id="Path_1065" data-name="Path 1065" d="M1400.5,1300.669c0-.441-.3-.672-.9-.674q-2.382,0-4.765,0-2.438,0-4.877,0c-.611,0-.9.225-.905.672s.3.674.9.675q4.821,0,9.642,0C1400.2,1301.342,1400.5,1301.114,1400.5,1300.669Z" transform="translate(-30.227 -65.672)" fill="#116ca5"/>
    <path id="Path_1066" data-name="Path 1066" d="M1389.9,1329.995c-.46,0-.777.2-.771.683s.335.667.791.665c.727,0,1.455,0,2.182,0h2.182c.459,0,.778-.2.771-.684s-.335-.666-.791-.665Q1392.08,1330,1389.9,1329.995Z" transform="translate(-30.298 -92.301)" fill="#116ca5"/>
    <path id="Path_1067" data-name="Path 1067" d="M1356.342,1246.626q0-4.354,0-8.707t0-8.707c0-1.318.64-1.9,2.015-1.854,4.235.156,8.475.262,12.705.006,1.455-.088,2.134.494,2.135,1.845,0,3.049,0,5.2,0,8.247a5.965,5.965,0,0,1,1.348.954c0-3.38,0-5.861,0-9.241a2.94,2.94,0,0,0-3.264-3.16c-4.368.107-8.738.026-13.108,0a2.929,2.929,0,0,0-3.179,3.158q0,4.382,0,8.765t0,8.765a2.921,2.921,0,0,0,3.116,3.134h6.685a.674.674,0,0,0,.674-.674h0a.674.674,0,0,0-.674-.674h-6.6A1.621,1.621,0,0,1,1356.342,1246.626Z" transform="translate(0 0)" fill="#116ca5"/>
    <path id="Path_1068" data-name="Path 1068" d="M1442.082,1334.332a5.974,5.974,0,0,0-3-3.666,5.843,5.843,0,0,0-4.868-.243,5.767,5.767,0,0,0-3.774,4.925c-.026.2-.029.405-.044.622h-1.178l1.783,2.377,1.788-2.385h-1.21c.031-.285.049-.549.091-.81a4.768,4.768,0,0,1,5.588-3.865,4.88,4.88,0,0,1,1.825.776,4.731,4.731,0,0,1,1.348,1.435,4.781,4.781,0,0,1,.619,3.274,4.645,4.645,0,0,1-.619,1.665,4.787,4.787,0,0,1-1.568,1.573,4.754,4.754,0,0,1-5.842-.649.607.607,0,0,0-.5-.2.595.595,0,0,0-.351,1.031,7.172,7.172,0,0,0,.718.6,5.732,5.732,0,0,0,4.626,1,5.829,5.829,0,0,0,2.551-1.168A5.953,5.953,0,0,0,1442.082,1334.332Z" transform="translate(-65.885 -92.311)" fill="#116ca5"/>
    <path id="Path_1069" data-name="Path 1069" d="M1483.317,1351.89a.6.6,0,1,0-1.191,0q0,1.758,0,3.515a.6.6,0,0,0,.621.627c.209,0,.418,0,.628,0,.567,0,1.134,0,1.7,0a.6.6,0,1,0,0-1.192c-.163,0-.325,0-.488,0h-1.269v-.284Q1483.317,1353.222,1483.317,1351.89Z" transform="translate(-112.845 -111.183)" fill="#116ca5"/>
  </g>
</svg>