<svg xmlns="http://www.w3.org/2000/svg" width="24.482" height="16.828" viewBox="0 0 24.482 16.828">
  <g id="Group_502" data-name="Group 502" transform="translate(-314.029 -918.068)">
    <path id="Path_973" data-name="Path 973" d="M326.229,934.894q-5.166,0-10.332,0c-1.318,0-1.863-.554-1.864-1.888,0-1.073-.005-2.146,0-3.218,0-.71.187-.907.885-1a2.319,2.319,0,0,0,2.178-2.339,2.283,2.283,0,0,0-2.2-2.235.861.861,0,0,1-.865-.982c.007-1.176-.01-2.352.006-3.528a1.523,1.523,0,0,1,1.634-1.627q10.579-.012,21.159,0a1.539,1.539,0,0,1,1.677,1.71q.01,6.715,0,13.43a1.528,1.528,0,0,1-1.7,1.68Q331.519,934.9,326.229,934.894Zm10.7-1.55V919.651H315.578c0,.963-.016,1.887.017,2.809,0,.134.218.319.374.381a3.836,3.836,0,0,1-.009,7.3c-.146.057-.359.208-.362.321-.029.958-.017,1.917-.017,2.885Z" fill="#116ca5"/>
    <path id="Path_974" data-name="Path 974" d="M401.939,953.657c-.265-.217-.6-.359-.652-.568a1.182,1.182,0,0,1,.18-.893c.957-1.214,1.963-2.39,2.953-3.578q2.217-2.662,4.437-5.322c.421-.5.841-.586,1.216-.271s.374.738-.045,1.244q-2.648,3.189-5.3,6.372c-.686.824-1.364,1.655-2.066,2.465A4.806,4.806,0,0,1,401.939,953.657Z" transform="translate(-76.44 -21.706)" fill="#116ca5"/>
    <path id="Path_975" data-name="Path 975" d="M437.763,994.493a2.291,2.291,0,0,1,2.315-2.25,2.328,2.328,0,0,1,2.266,2.316,2.3,2.3,0,0,1-2.363,2.266A2.258,2.258,0,0,1,437.763,994.493Zm2.254.815a.724.724,0,0,0,.767-.729.685.685,0,0,0-.692-.78.727.727,0,0,0-.805.74A.757.757,0,0,0,440.016,995.308Z" transform="translate(-108.422 -64.997)" fill="#116ca5"/>
    <path id="Path_976" data-name="Path 976" d="M400.707,945.155a2.269,2.269,0,0,1,2.284-2.272,2.291,2.291,0,1,1-.038,4.581A2.269,2.269,0,0,1,400.707,945.155Zm1.514,0a.734.734,0,0,0,.74.763.7.7,0,0,0,.771-.71.741.741,0,0,0-.752-.8A.766.766,0,0,0,402.221,945.16Z" transform="translate(-75.951 -21.745)" fill="#116ca5"/>
    <path id="Path_977" data-name="Path 977" d="M363.889,994.043v-1.468h1.441v1.468Z" transform="translate(-43.69 -65.287)" fill="#116ca5"/>
    <path id="Path_978" data-name="Path 978" d="M365.361,943.14v1.447h-1.453V943.14Z" transform="translate(-43.706 -21.97)" fill="#116ca5"/>
    <path id="Path_979" data-name="Path 979" d="M363.837,969.482v-1.418h1.442v1.418Z" transform="translate(-43.644 -43.81)" fill="#116ca5"/>
    <path id="Path_980" data-name="Path 980" d="M365.409,1017.37v1.439h-1.445v-1.439Z" transform="translate(-43.755 -87.014)" fill="#116ca5"/>
  </g>
</svg>