<svg xmlns="http://www.w3.org/2000/svg" width="22.239" height="14.631" viewBox="0 0 22.239 14.631">
  <g id="Group_545" data-name="Group 545" transform="translate(-753.137 -1610.996)">
    <path id="Path_1045" data-name="Path 1045" d="M764.238,1625.627q-4.478,0-8.956,0a1.9,1.9,0,0,1-2.143-2.147q0-5.169,0-10.339a1.9,1.9,0,0,1,2.146-2.144q8.989,0,17.977,0a1.892,1.892,0,0,1,2.11,2.114q.006,5.2,0,10.4a1.892,1.892,0,0,1-2.113,2.11Q768.749,1625.63,764.238,1625.627Zm-10.082-8.693c0,2.236,0,4.406,0,6.577,0,.845.25,1.1,1.1,1.1q8.995.007,17.989,0c.877,0,1.106-.252,1.108-1.161q0-2.965,0-5.931c0-.189-.025-.379-.04-.588Zm0-3.085h20.133c.228-1.569,0-1.84-1.509-1.84q-8.7,0-17.4,0c-1.033,0-1.23.206-1.227,1.243C754.157,1613.427,754.156,1613.6,754.156,1613.848Z" transform="translate(0 0)" fill="#116ca5"/>
    <path id="Path_1046" data-name="Path 1046" d="M787.729,1673.935a2.026,2.026,0,1,1-4.049-.088,2.025,2.025,0,0,1,4.049.088Z" transform="translate(-26.517 -52.858)" fill="#116ca5"/>
    <path id="Path_1047" data-name="Path 1047" d="M769.295,1675.9a1.926,1.926,0,0,1-2.153-.8,2.112,2.112,0,0,1,.077-2.4,1.891,1.891,0,0,1,2.089-.683,6.654,6.654,0,0,0-.6,1.912A7,7,0,0,0,769.295,1675.9Z" transform="translate(-11.867 -52.902)" fill="#116ca5"/>
    <path id="Path_1048" data-name="Path 1048" d="M885.15,1683.493a5.248,5.248,0,0,1,1.047.02c.18.037.465.311.442.423-.042.2-.272.492-.443.5a14.946,14.946,0,0,1-2.166,0c-.167-.011-.464-.312-.441-.429a.744.744,0,0,1,.449-.5,5.157,5.157,0,0,1,1.112-.023Z" transform="translate(-113.257 -62.922)" fill="#116ca5"/>
    <path id="Path_1049" data-name="Path 1049" d="M826.874,1684.462a4.028,4.028,0,0,1-.981-.021c-.2-.051-.347-.3-.518-.467.17-.163.329-.453.51-.468a13.418,13.418,0,0,1,2.1,0c.18.014.339.3.507.461-.167.165-.312.431-.506.473A5.363,5.363,0,0,1,826.874,1684.462Z" transform="translate(-62.717 -62.918)" fill="#116ca5"/>
    <path id="Path_1050" data-name="Path 1050" d="M855.886,1684.466a4.637,4.637,0,0,1-1.047-.021c-.2-.047-.344-.308-.514-.472.173-.161.336-.448.52-.462a13.426,13.426,0,0,1,2.1,0c.179.014.337.3.5.467-.171.162-.319.42-.517.466A4.7,4.7,0,0,1,855.886,1684.466Z" transform="translate(-87.851 -62.922)" fill="#116ca5"/>
  </g>
</svg>