<svg xmlns="http://www.w3.org/2000/svg" width="60.949" height="60.931" viewBox="0 0 60.949 60.931">
  <g id="Group_3" data-name="Group 3" transform="translate(-1240.126 -686.578)">
    <path id="Path_6" data-name="Path 6" d="M1300.877,782.358q-1.734-1.707-3.454-3.428a2.781,2.781,0,0,1-.861-1.324c-1.318-5.37-2.667-10.733-4.009-16.1-.047-.186-.106-.369-.158-.548h-43.761c-.239,1.3-.486,2.575-.664,3.886l2.692.463.3-1.573h39.291c.375,1.5.742,2.967,1.109,4.435s.734,2.936,1.1,4.4.754,2.906,1.092,4.448l-7.6-1.9c.4-2.843.8-5.632,1.2-8.457l-2.737-.389c-.522,3.658-1.038,7.269-1.555,10.889a2.347,2.347,0,0,0,.292.122q1.859.462,3.72.918c1.014.247,2.033.478,3.044.732,1.273.32,2.536.679,3.814.977a2.541,2.541,0,0,1,1.833,1.073,1.115,1.115,0,0,0,.192.19c.714.713,1.422,1.433,2.146,2.136a.706.706,0,0,1,.234.667c-.33,2.555-.643,5.113-.964,7.669-.047.371-.108.739-.164,1.114h-3.039a7,7,0,0,0-2.449-3.984,6.948,6.948,0,0,0-8.306-.294,6.993,6.993,0,0,0-2.839,4.274h-16.859a6.837,6.837,0,0,0-6.088-5.467c-3.972-.234-6.4,1.772-7.563,5.464a22.1,22.1,0,0,1-3.952-.072l.953-5.447h4.279v-2.718c-.814-.115-10.663-.071-11.021.042v2.684h3.92l-1.434,8.306h7.273a7.024,7.024,0,0,0,6.865,5.542,6.837,6.837,0,0,0,3.908-1.238,7,7,0,0,0,2.849-4.263h16.86a6.994,6.994,0,0,0,6.588,5.5,6.745,6.745,0,0,0,3.905-1.062,7.064,7.064,0,0,0,3.127-4.486h5.474c.045-.309.086-.556.117-.8q.354-2.816.7-5.632.39-3.111.787-6.221A.566.566,0,0,0,1300.877,782.358ZM1256.8,798.312a4.156,4.156,0,1,1,4.061-4.2A4.154,4.154,0,0,1,1256.8,798.312Zm30.379,0a4.155,4.155,0,1,1,4.151-4.167A4.142,4.142,0,0,1,1287.181,798.313Z" transform="translate(0 -53.583)" fill="#116ca5"/>
    <path id="Path_7" data-name="Path 7" d="M1351.941,704.281a13.914,13.914,0,0,1,.316-5.986,12.435,12.435,0,0,1,2.956-5.094,12.305,12.305,0,0,1,5.009-3.2,12.433,12.433,0,0,1,13.626,3.906,12.12,12.12,0,0,1,2.8,7.123,12.423,12.423,0,0,1-2.974,8.915l2.069,1.777a15.21,15.21,0,0,0-18.861-23.256,15,15,0,0,0-7.534,16.376Z" transform="translate(-78.424 0)" fill="#116ca5"/>
    <path id="Path_8" data-name="Path 8" d="M1244.645,788.354c.747,0,1.5,0,2.288,0l-.415,2.528c.964.138,1.825.369,2.718.429l.529-2.961h11.77c1.965,0,3.93,0,5.9,0s3.914.021,5.86-.017v-2.688c-.814-.119-32.773-.077-33.159.041v2.664h4.514Z" transform="translate(-0.004 -71.316)" fill="#116ca5"/>
    <path id="Path_9" data-name="Path 9" d="M1245.178,820.645l2.616.483.525-2.968h13.9a11.168,11.168,0,0,0-.042-2.729h-22.031v2.759h5.372A12.97,12.97,0,0,0,1245.178,820.645Z" transform="translate(-0.017 -92.823)" fill="#116ca5"/>
    <path id="Path_10" data-name="Path 10" d="M1398.63,706.535V717.5c.65.107,9.227.084,9.609-.018V714.8h-6.89v-8.261Z" transform="translate(-114.182 -14.376)" fill="#116ca5"/>
  </g>
</svg>