
<svg xmlns="http://www.w3.org/2000/svg" width="21.566" height="17.965" viewBox="0 0 21.566 17.965">
  <g id="Group_524" data-name="Group 524" transform="translate(70.8 -1120.067)">
    <path id="Path_1012" data-name="Path 1012" d="M-56.425,1121.867h.244q2.191,0,4.383,0a2.465,2.465,0,0,1,2.542,2.154,2.409,2.409,0,0,1,.02.387q0,5.545,0,11.09a2.474,2.474,0,0,1-2.523,2.531c-1.325.005-2.651,0-3.976,0q-6.247,0-12.495,0a2.444,2.444,0,0,1-2.348-1.458,2.3,2.3,0,0,1-.222-1.026q0-5.589,0-11.178a2.461,2.461,0,0,1,2.481-2.5c1.484-.008,2.969,0,4.454,0,.308,0,.247,0,.257-.24a1.567,1.567,0,0,1,1.623-1.559q1.953,0,3.906,0a1.572,1.572,0,0,1,1.653,1.6C-56.424,1121.727-56.425,1121.784-56.425,1121.867Zm-7.2,1.347h-4.592a1.133,1.133,0,0,0-1.237,1.243q0,5.492,0,10.985a1.142,1.142,0,0,0,1.242,1.242h16.384a1.142,1.142,0,0,0,1.246-1.238q0-5.5,0-11a1.131,1.131,0,0,0-1.233-1.229h-4.6c-.006.122-.011.221-.017.319A1.541,1.541,0,0,1-57.956,1125q-2.059.021-4.118,0a1.541,1.541,0,0,1-1.5-1.255A4.852,4.852,0,0,1-63.624,1123.214Zm3.608-1.8h-1.925c-.25,0-.316.065-.317.312q0,.812,0,1.624c0,.25.062.31.316.31h3.851c.255,0,.317-.06.317-.309q0-.812,0-1.623c0-.247-.068-.312-.316-.313Z" fill="#116ca5"/>
    <path id="Path_1013" data-name="Path 1013" d="M-32,1256.124c0,.089,0,.2,0,.313a.678.678,0,0,1-.671.642.676.676,0,0,1-.673-.657,5.379,5.379,0,0,0-.019-.634,1.079,1.079,0,0,0-1.052-.945q-1.625-.025-3.25,0a1.1,1.1,0,0,0-1.074,1.116c0,.153,0,.306,0,.459a.67.67,0,0,1-.632.66.662.662,0,0,1-.7-.568,2.646,2.646,0,0,1,.842-2.413,2.434,2.434,0,0,1,1.635-.61q1.555-.006,3.109,0A2.488,2.488,0,0,1-32,1256.124Z" transform="translate(-28.022 -121.746)" fill="#116ca5"/>
    <path id="Path_1014" data-name="Path 1014" d="M-14.921,1194.2a2.241,2.241,0,0,1-2.257,2.232,2.245,2.245,0,0,1-2.23-2.242,2.251,2.251,0,0,1,2.249-2.244A2.248,2.248,0,0,1-14.921,1194.2Zm-1.347-.013a.9.9,0,0,0-.9-.9.9.9,0,0,0-.893.9.9.9,0,0,0,.9.894A.9.9,0,0,0-16.267,1194.184Z" transform="translate(-46.897 -65.587)" fill="#116ca5"/>
    <path id="Path_1015" data-name="Path 1015" d="M76.167,1238.082c.795,0,1.59,0,2.384,0a.716.716,0,0,1,.574.221.63.63,0,0,1,.139.688.645.645,0,0,1-.571.434c-.053,0-.106.006-.159.006q-2.375,0-4.751,0a.72.72,0,0,1-.634-.279.667.667,0,0,1,.4-1.05,1.373,1.373,0,0,1,.263-.021Q74.992,1238.081,76.167,1238.082Z" transform="translate(-131.238 -107.69)" fill="#116ca5"/>
    <path id="Path_1016" data-name="Path 1016" d="M76.187,1197.1h2.4a.675.675,0,1,1,0,1.344H73.771a.676.676,0,0,1-.728-.672.669.669,0,0,1,.724-.673Z" transform="translate(-131.259 -70.292)" fill="#116ca5"/>
    <path id="Path_1017" data-name="Path 1017" d="M76.151,1279.183c.812,0,1.625,0,2.437,0a.667.667,0,0,1,.662.889.651.651,0,0,1-.509.44.879.879,0,0,1-.175.016q-2.419,0-4.839,0a.686.686,0,0,1-.682-.436.667.667,0,0,1,.512-.9,1.549,1.549,0,0,1,.246-.013Z" transform="translate(-131.219 -145.195)" fill="#116ca5"/>
  </g>
</svg>