<svg xmlns="http://www.w3.org/2000/svg" width="17.444" height="19.209" viewBox="0 0 17.444 19.209">
  <g id="Group_533" data-name="Group 533" transform="translate(-640.324 -1150.166)">
    <path id="Path_1053" data-name="Path 1053" d="M641.787,1154.14c-.57-.17-1.436.244-1.462-.628-.029-.965.906-.448,1.463-.7,0-.485,0-1.017,0-1.55a.962.962,0,0,1,1.107-1.092q6.138,0,12.276,0c.779,0,1.106.347,1.109,1.148,0,.5,0,1,0,1.586a2.722,2.722,0,0,1,.871.02,1,1,0,0,1,.6.537c.081.364-.211.6-.592.622-.267.019-.537,0-.883,0,0,1.274,0,2.522,0,3.769,0,3.493.012,6.987-.017,10.48a1.2,1.2,0,0,1-.434.9c-.208.125-.661-.013-.932-.166a21.055,21.055,0,0,1-2.041-1.314.689.689,0,0,0-.92.005c-.7.471-1.439.9-2.148,1.362a1.24,1.24,0,0,1-1.5,0c-.721-.482-1.472-.919-2.185-1.412a.583.583,0,0,0-.772.01c-.67.453-1.346.9-2.054,1.294a1.623,1.623,0,0,1-1.045.233c-.46-.115-.44-.6-.44-1.022q.005-6.833,0-13.666C641.787,1154.424,641.787,1154.292,641.787,1154.14Zm13.267,13.613v-13.621H643.011v13.633c.695-.437,1.339-.814,1.952-1.235a1.215,1.215,0,0,1,1.5-.008c.724.477,1.47.92,2.188,1.406a.6.6,0,0,0,.772.011c.738-.49,1.506-.935,2.247-1.42a1.223,1.223,0,0,1,1.5.012C653.765,1166.94,654.383,1167.32,655.054,1167.753ZM643,1152.863H655.06v-1.46H643Z" transform="translate(0)" fill="#116ca5"/>
    <path id="Path_1054" data-name="Path 1054" d="M683.586,1230.924c1.176,0,2.353.007,3.529,0,.44,0,.793.1.795.61,0,.482-.337.583-.753.582q-3.558-.01-7.116,0c-.429,0-.821-.068-.831-.57-.01-.537.394-.622.847-.617,1.176.011,2.353,0,3.529,0Z" transform="translate(-34.379 -71.397)" fill="#116ca5"/>
    <path id="Path_1055" data-name="Path 1055" d="M682.485,1203.385h-2.547c-.406,0-.763-.111-.771-.585-.008-.507.37-.627.794-.628q2.518,0,5.037,0c.4,0,.761.109.767.588.006.509-.361.626-.791.626h-2.489Z" transform="translate(-34.342 -45.979)" fill="#116ca5"/>
    <path id="Path_1056" data-name="Path 1056" d="M682.515,1260.856c-.849,0-1.7-.005-2.546,0-.443,0-.8-.143-.795-.627,0-.461.358-.572.775-.57,1.7.007,3.394,0,5.091,0,.419,0,.74.133.729.614-.01.443-.315.578-.708.578h-2.546Z" transform="translate(-34.348 -96.805)" fill="#116ca5"/>
  </g>
</svg>