<svg xmlns="http://www.w3.org/2000/svg" width="14.439" height="20.083" viewBox="0 0 14.439 20.083">
  <g id="Group_525" data-name="Group 525" transform="translate(274.845 -1325)">
    <path id="Path_1022" data-name="Path 1022" d="M-267.341,1325l.577.059a6.365,6.365,0,0,1,1.387.31,7,7,0,0,1,2.941,1.9,7.491,7.491,0,0,1,1.877,3.692,7.391,7.391,0,0,1,.134,2,7.888,7.888,0,0,1-.411,1.916,17.45,17.45,0,0,1-1.58,3.352,32.22,32.22,0,0,1-2.3,3.376c-.532.686-1.083,1.357-1.642,2.021-.4.472-.82.922-1.231,1.382a.484.484,0,0,0-.043.072c-.16-.171-.3-.319-.442-.474-.318-.36-.64-.718-.947-1.087-.457-.55-.911-1.1-1.351-1.666a33.906,33.906,0,0,1-2.183-3.127,19.319,19.319,0,0,1-1.71-3.406,9.8,9.8,0,0,1-.5-1.841,6.925,6.925,0,0,1-.051-1.631,7.721,7.721,0,0,1,.518-2.263,7.317,7.317,0,0,1,1.792-2.67,6.874,6.874,0,0,1,3.166-1.72,6.343,6.343,0,0,1,1.218-.18A1.286,1.286,0,0,0-268,1325Zm-.279,18.174c.028-.031.053-.055.074-.081.438-.548.886-1.088,1.312-1.645a37.465,37.465,0,0,0,3.107-4.663,14.489,14.489,0,0,0,1.182-2.663,5.714,5.714,0,0,0,.275-1.363,5.256,5.256,0,0,0-.1-1.4,6.511,6.511,0,0,0-2.383-3.877,5.469,5.469,0,0,0-3.945-1.211,5.314,5.314,0,0,0-1.819.48,6.025,6.025,0,0,0-2.256,1.809,6.424,6.424,0,0,0-1.4,3.835,5.167,5.167,0,0,0,.248,1.625,14.083,14.083,0,0,0,1.208,2.762,32.682,32.682,0,0,0,2.4,3.711c.5.676,1.019,1.336,1.535,2C-268.006,1342.723-267.812,1342.943-267.62,1343.174Z" fill="#116ca5"/>
    <path id="Path_1023" data-name="Path 1023" d="M-228.119,1368.963a2.829,2.829,0,0,1,2.928,2.52,2.834,2.834,0,0,1-2.494,3.141,2.838,2.838,0,0,1-3.153-2.493A2.839,2.839,0,0,1-228.119,1368.963Zm.114,1.271a1.581,1.581,0,0,0-1.581,1.573,1.585,1.585,0,0,0,1.593,1.583,1.573,1.573,0,0,0,1.569-1.585A1.574,1.574,0,0,0-228,1370.234Z" transform="translate(-39.614 -39.589)" fill="#116ca5"/>
  </g>
</svg>