<svg xmlns="http://www.w3.org/2000/svg" width="14.729" height="16.367" viewBox="0 0 16.729 18.367">
  <g id="Group_528" data-name="Group 528" transform="translate(-807.582 -1362.633)">
    <path id="Path_1035" data-name="Path 1035" d="M809.306,1362.633h13.279v12.577h1.726V1381H807.582v-5.788h1.724Zm12.581,12.57v-11.889H810V1375.2Zm1.739.695H808.271v4.422h5.813v-3.875h3.734v3.875h5.808Zm-8.862,4.422h2.364v-3.189h-2.364Z"/>
    <path id="Path_1036" data-name="Path 1036" d="M867.825,1432.679h2.542v2.541h-2.542Zm.684.681v1.178h1.174v-1.178Z" transform="translate(-53.149 -61.798)"/>
    <path id="Path_1037" data-name="Path 1037" d="M840.323,1435.247h-2.544v-2.542h2.544Zm-1.859-1.863v1.178h1.173v-1.178Z" transform="translate(-26.641 -61.821)"/>
    <path id="Path_1038" data-name="Path 1038" d="M898.388,1435.245v-2.538h2.543v2.538Zm.682-1.862v1.181h1.176v-1.181Z" transform="translate(-80.113 -61.823)"/>
    <path id="Path_1039" data-name="Path 1039" d="M870.362,1380.095h-2.543v-2.538h2.543Zm-1.859-.681h1.173v-1.179H868.5Z" transform="translate(-53.144 -13.167)"/>
    <path id="Path_1040" data-name="Path 1040" d="M870.362,1407.811h-2.544v-2.538h2.544Zm-1.859-1.862v1.181h1.172v-1.181Z" transform="translate(-53.143 -37.619)"/>
    <path id="Path_1041" data-name="Path 1041" d="M840.335,1405.284v2.536h-2.543v-2.536Zm-1.857.675v1.182h1.17v-1.182Z" transform="translate(-26.653 -37.629)"/>
    <path id="Path_1042" data-name="Path 1042" d="M840.316,1377.539v2.537H837.77v-2.537Zm-1.859.677v1.179h1.172v-1.179Z" transform="translate(-26.633 -13.151)"/>
    <path id="Path_1043" data-name="Path 1043" d="M898.4,1405.244h2.541v2.539H898.4Zm.681.679v1.182h1.173v-1.182Z" transform="translate(-80.127 -37.593)"/>
    <path id="Path_1044" data-name="Path 1044" d="M900.926,1380.072h-2.543v-2.539h2.543Zm-.683-1.857h-1.177v1.178h1.177Z" transform="translate(-80.109 -13.145)"/>
  </g>
</svg>