<?xml version="1.0" encoding="utf-8"?>
<!-- Generator: Adobe Illustrator 27.3.1, SVG Export Plug-In . SVG Version: 6.00 Build 0)  -->
<svg version="1.1" id="Capa_1" xmlns="http://www.w3.org/2000/svg" xmlns:xlink="http://www.w3.org/1999/xlink" x="0px" y="0px"
	 viewBox="0 0 512 512" style="enable-background:new 0 0 512 512;" xml:space="preserve">
<style type="text/css">
	.st0{font-family:'Righteous-Regular';}
	.st1{font-size:73.8033px;}
</style>
<g>
	<g>
		<path d="M481.3,81.9H30.7C13.8,81.9,0,95.7,0,112.6v286.7c0,16.9,13.8,30.7,30.7,30.7h450.6c16.9,0,30.7-13.8,30.7-30.7V112.6
			C512,95.7,498.2,81.9,481.3,81.9z M491.5,399.4c0,5.6-4.6,10.2-10.2,10.2H30.7c-5.7,0-10.2-4.6-10.2-10.2V112.6
			c0-5.7,4.6-10.2,10.2-10.2h450.6c5.6,0,10.2,4.6,10.2,10.2V399.4z"/>
	</g>
</g>
<g>
	<g>
		<path d="M276.5,286.7H92.2c-5.7,0-10.2,4.6-10.2,10.2c0,5.7,4.6,10.2,10.2,10.2h184.3c5.7,0,10.2-4.6,10.2-10.2
			C286.7,291.3,282.1,286.7,276.5,286.7z"/>
	</g>
</g>
<g>
	<g>
		<path d="M194.6,327.7H92.2c-5.7,0-10.2,4.6-10.2,10.2s4.6,10.2,10.2,10.2h102.4c5.7,0,10.2-4.6,10.2-10.2S200.2,327.7,194.6,327.7
			z"/>
	</g>
</g>
<text transform="matrix(1.009 0 0 1 24.5078 231.3086)" class="st0 st1">CREDIT CARD</text>
<path d="M463.1,277.9h-96.2c-5.5,0-10,4.5-10,10v62.8c0,5.5,4.5,10,10,10h96.2c5.5,0,10-4.5,10-10v-62.8
	C473.1,282.4,468.6,277.9,463.1,277.9z M450.5,345.7h-69.1c-8.3,0-15-6.7-15-15v-26c0-7.7,6.2-13.9,13.9-13.9h71.2
	c7,0,12.6,5.6,12.6,12.6v28.6C464.1,339.6,458,345.7,450.5,345.7z"/>
</svg>
