<?xml version="1.0" encoding="utf-8"?>
<!-- Generator: Adobe Illustrator 27.3.1, SVG Export Plug-In . SVG Version: 6.00 Build 0)  -->
<svg version="1.1" id="Layer_1" xmlns="http://www.w3.org/2000/svg" xmlns:xlink="http://www.w3.org/1999/xlink" x="0px" y="0px"
	 viewBox="0 0 512 512" style="enable-background:new 0 0 512 512;" xml:space="preserve">
<style type="text/css">
	.st0{font-family:'Righteous-Regular';}
	.st1{font-size:136.9097px;}
</style>
<path d="M324,360H80c-22.1,0-40-17.9-40-40V128c0-22.1,17.9-40,40-40h304c22.1,0,40,17.9,40,40v136.5c0,4.4-3.6,8-8,8s-8-3.6-8-8
	V128c0-13.3-10.7-24-24-24H80c-13.3,0-24,10.7-24,24v192c0,13.3,10.7,24,24,24h244c4.4,0,8,3.6,8,8S328.4,360,324,360z"/>
<path d="M392,424c-0.6,0-1.3-0.1-1.9-0.2c-45.4-11.1-77.6-51.6-78.1-98.4v-54c0-4.3,3.5-7.9,7.8-8c23.7-1,47-6,69-14.8
	c2-0.9,4.4-0.9,6.4,0c21.7,9.5,45.1,14.5,68.8,14.8c4.4,0,8,3.6,8,8v54c-0.5,46.8-32.7,87.3-78.1,98.4
	C393.3,423.9,392.6,424,392,424z M328,279v46.4c0.5,38.7,26.6,72.3,64,82.4c37.4-10,63.5-43.7,64-82.4v-46.2
	c-22-1.2-43.6-6.1-64-14.5C371.5,272.6,349.9,277.4,328,279z"/>
<path d="M384,360c-1.6,0-3.1-0.5-4.4-1.3l-24-16c-3.7-2.5-4.7-7.4-2.2-11.1s7.4-4.7,11.1-2.2l0,0l18.5,12.4l39.4-39.4
	c3.2-3.1,8.2-3,11.3,0.2c3,3.1,3,8,0,11.1l-44,44C388.2,359.2,386.1,360,384,360z"/>
<text transform="matrix(1.009 0 0 1 60.4644 248.0092)" class="st0 st1">KNET</text>
</svg>
