<svg xmlns="http://www.w3.org/2000/svg" width="16.365" height="16.367" viewBox="0 0 18.365 18.367">
  <g id="Group_527" data-name="Group 527" transform="translate(-585.152 -1444.17)">
    <path id="Path_1027" data-name="Path 1027" d="M601.507,1460.406c0,.484,0,.935,0,1.387,0,.142.1.12.182.12.487,0,.973-.005,1.46.005a.463.463,0,0,1,.288.11.3.3,0,0,1-.139.485.878.878,0,0,1-.241.023H585.62a1.111,1.111,0,0,1-.2-.01.287.287,0,0,1-.261-.309.29.29,0,0,1,.292-.3c.236-.01.473-.012.709,0,.154.007.2-.047.194-.2-.007-.622,0-1.244,0-1.865v-11.395c0-.266,0-.266-.259-.266-.2,0-.392,0-.588,0-.229,0-.345-.108-.347-.33q-.008-.831,0-1.662c0-.231.114-.325.371-.325.858,0,1.717,0,2.575,0h.279c0-.445,0-.863,0-1.281,0-.332.089-.422.419-.422h5.453c.344,0,.432.089.432.432,0,.411,0,.823,0,1.256.113.005.211.014.309.014h8.028c.433,0,.49.057.491.492q0,.72,0,1.439c0,.287-.1.386-.393.388-.216,0-.432,0-.649,0-.112,0-.166.034-.154.15,0,.047,0,.095,0,.142v11.435c0,.423-.064.486-.5.486Zm-14.521-12.2V1461.9h2.483v-.234c0-.507,0-1.014,0-1.521,0-.243.105-.348.346-.348q1.713,0,3.427,0c.25,0,.354.108.355.361,0,.507,0,1.014,0,1.521,0,.072.006.144.01.222h2.468v-13.7Zm14.714,0h-4.971v11.587h4.708c.262,0,.263,0,.263-.267q0-5.525,0-11.05Zm-15.916-.647h17.092V1446.5H585.784Zm10.95,12.861v1.484h4.14v-1.484Zm-2.682-15.623h-5.037v1.061h5.037Zm-1.087,15.636c-.028-.012-.04-.022-.052-.022-.9,0-1.8,0-2.695-.006-.129,0-.139.07-.138.168,0,.371.009.743,0,1.114-.006.173.039.233.224.23.675-.011,1.351,0,2.026,0h.639Z"/>
    <path id="Path_1028" data-name="Path 1028" d="M623.707,1470.449c.331,0,.662,0,.993,0,.257,0,.369.115.37.374q0,.851,0,1.7c0,.268-.113.377-.387.378q-.973,0-1.945,0c-.284,0-.387-.106-.388-.4q0-.841,0-1.682c0-.271.108-.376.384-.378C623.059,1470.447,623.383,1470.448,623.707,1470.449Zm-.731,1.82h1.46v-1.183h-1.46Z" transform="translate(-30.22 -21.349)"/>
    <path id="Path_1029" data-name="Path 1029" d="M602.844,1472.9c-.324,0-.648,0-.973,0-.274,0-.383-.11-.384-.378q0-.851,0-1.7c0-.262.108-.373.367-.374q.993,0,1.986,0c.252,0,.36.107.361.357q.005.871,0,1.743c0,.246-.111.351-.364.354C603.505,1472.906,603.175,1472.9,602.844,1472.9Zm.745-.634c0-.381,0-.737,0-1.092,0-.036-.057-.1-.089-.1-.456-.007-.912,0-1.378,0v1.2Z" transform="translate(-13.27 -21.347)"/>
    <path id="Path_1030" data-name="Path 1030" d="M623.7,1490.008c.331,0,.662,0,.992,0,.273,0,.375.109.376.385q0,.841,0,1.681c0,.273-.107.378-.382.379q-.982,0-1.965,0c-.267,0-.371-.1-.373-.365q-.006-.861,0-1.722c0-.257.1-.355.358-.358C623.04,1490,623.37,1490.008,623.7,1490.008Zm-.724,1.808h1.456v-1.172h-1.456Z" transform="translate(-30.22 -37.24)"/>
    <path id="Path_1031" data-name="Path 1031" d="M623.7,1512c-.324,0-.648,0-.972,0-.28,0-.377-.1-.378-.381q-.005-.851,0-1.7c0-.264.105-.363.374-.364q.992,0,1.985,0c.249,0,.36.11.361.358q0,.861,0,1.722c0,.258-.11.363-.376.365-.331,0-.662,0-.992,0Zm.745-.618c0-.388,0-.745-.005-1.1a.168.168,0,0,0-.122-.109q-.617-.012-1.234,0a.168.168,0,0,0-.114.118q-.014.485,0,.971a.166.166,0,0,0,.113.116C623.528,1511.381,623.972,1511.378,624.446,1511.378Z" transform="translate(-30.219 -53.116)"/>
    <path id="Path_1032" data-name="Path 1032" d="M602.859,1492.453c-.338,0-.675,0-1.013,0-.252,0-.359-.108-.36-.356q0-.861,0-1.722c0-.254.1-.365.35-.366q1.013-.006,2.025,0a.294.294,0,0,1,.337.336q.006.881,0,1.762c0,.24-.107.342-.349.345C603.521,1492.456,603.19,1492.453,602.859,1492.453Zm-.754-1.829c0,.386,0,.743.005,1.1a.168.168,0,0,0,.12.112q.617.013,1.235,0a.169.169,0,0,0,.118-.114q.015-.486,0-.972a.169.169,0,0,0-.111-.12C603.028,1490.62,602.583,1490.624,602.1,1490.624Z" transform="translate(-13.269 -37.238)"/>
    <path id="Path_1033" data-name="Path 1033" d="M602.832,1512c-.317,0-.635,0-.952,0-.292,0-.393-.1-.393-.387q0-.841,0-1.681c0-.276.1-.377.38-.378q.982,0,1.965,0c.269,0,.369.1.37.364q0,.861,0,1.722c0,.254-.1.355-.357.359C603.507,1512,603.17,1512,602.832,1512Zm-.726-.617c.477,0,.921,0,1.366-.005a.168.168,0,0,0,.112-.118c.01-.317,0-.634.007-.951,0-.106-.043-.143-.145-.142-.4,0-.81,0-1.215.006a.168.168,0,0,0-.121.112C602.1,1510.635,602.106,1510.991,602.106,1511.378Z" transform="translate(-13.271 -53.115)"/>
    <path id="Path_1034" data-name="Path 1034" d="M655.562,1475.343q0,2.22,0,4.439c0,.368-.081.448-.456.448q-.922,0-1.844,0c-.337,0-.421-.084-.422-.421q0-4.469,0-8.938c0-.328.1-.42.423-.421q.953,0,1.905,0c.285,0,.391.108.391.393Q655.562,1473.093,655.562,1475.343Zm-.639,1.208v-2.412h-1.45v2.412Zm0,.625c-.429,0-.846.006-1.263,0-.155,0-.212.036-.21.2.009.682,0,1.365,0,2.047,0,.058.01.116.015.176h1.453Zm-.005-3.683v-2.406h-1.449v2.406Z" transform="translate(-54.993 -21.35)"/>
  </g>
</svg>