<svg xmlns="http://www.w3.org/2000/svg" width="22.641" height="10.542" viewBox="0 0 22.641 10.542">
  <g id="Group_541" data-name="Group 541" transform="translate(-786.016 -856.516)">
    <path id="Path_1072" data-name="Path 1072" d="M800.318,861.579l-.625-3.988L787.248,859.6l.947,5.945c1.2-.189,2.367-.37,3.532-.557q2.05-.329,4.1-.667c.4-.066.82-.072.9.434s-.318.636-.719.7c-2.613.432-5.228.856-7.84,1.295-.644.108-.966-.088-1.068-.777-.324-2.171-.69-4.336-1.062-6.5-.118-.688.247-.882.819-.973q5.091-.8,10.18-1.625c.306-.049.618-.075.918-.149,2.639-.655,4.841.3,6.838,1.9a8.977,8.977,0,0,0,3.326,2.016c.5.128.652.483.451,1-.63,1.623-1.24,3.253-1.85,4.884a.662.662,0,0,1-1.012.435,15.437,15.437,0,0,1-2.46-1.125,4.708,4.708,0,0,0-4.275-.615c-.48.146-1.019.513-1.518-.059a2.716,2.716,0,0,1-.62-2.335c.033-.2.374-.426.616-.5C798.377,862.052,799.322,861.834,800.318,861.579Zm.6-3.6c.21,1.352.416,2.639.607,3.928.119.8-.033.923-.852.993-.8.068-1.591.206-2.379.352a.514.514,0,0,0-.3.38.585.585,0,0,0,.2.487.98.98,0,0,0,.609-.036,5.22,5.22,0,0,1,4.817.655,1.877,1.877,0,0,0,.336.148c.415-1.1.753-2.169,1.221-3.177a1.18,1.18,0,0,0-.454-1.7C803.579,859.152,802.532,858.159,800.913,857.977Zm4.863,7.774,1.576-4.175-.8-.284-1.562,4.14Z" transform="translate(0 0)" fill="#116ca5"/>
    <path id="Path_1073" data-name="Path 1073" d="M825.687,878.475a2.318,2.318,0,1,1,2.351,2.3A2.332,2.332,0,0,1,825.687,878.475Zm3.486-.051a1.2,1.2,0,0,0-1.206-1.162,1.175,1.175,0,0,0,.038,2.349A1.173,1.173,0,0,0,829.173,878.424Z" transform="translate(-33.984 -16.782)" fill="#116ca5"/>
  </g>
</svg>