<svg xmlns="http://www.w3.org/2000/svg" width="34.568" height="51.169" viewBox="0 0 34.568 51.169">
  <g id="Group_934" data-name="Group 934" transform="translate(-70.716 -835.316)">
    <path id="Path_1262" data-name="Path 1262" d="M-573.972-117.742c-9.655-.116-17.309-11.656-17.229-25.976.077-13.974,7.979-25.328,17.532-25.191,9.433.136,17.1,11.756,17.035,25.81C-556.7-129.092-564.54-117.629-573.972-117.742Zm15.654-25.519c-.08-13.011-7.074-23.274-15.785-23.162-8.613.111-15.486,10.634-15.419,23.607.065,12.453,7.2,22.66,15.789,22.573C-565.28-120.328-558.242-130.838-558.318-143.262Z" transform="translate(661.918 1004.227)"/>
    <path id="Path_1263" data-name="Path 1263" d="M-550.765-95.246a9.248,9.248,0,0,1,8.081,4.881c.076.132.15.267.213.406.241.532.216,1.023-.359,1.3-.543.262-.91-.029-1.2-.491a13.182,13.182,0,0,0-1.2-1.76A8.034,8.034,0,0,0-558.2-89.429c-.062.112-.12.225-.18.337a.813.813,0,0,1-1.152.431.818.818,0,0,1-.386-1.221,9.39,9.39,0,0,1,4.053-4.248A10.248,10.248,0,0,1-550.765-95.246Z" transform="translate(639.169 962.299)"/>
    <path id="Path_1264" data-name="Path 1264" d="M-554.825-129.009a2.2,2.2,0,0,1-2.24-2.134,2.219,2.219,0,0,1,2.148-2.234,2.182,2.182,0,0,1,2.266,2.18A2.165,2.165,0,0,1-554.825-129.009Z" transform="translate(636.997 983.563)"/>
    <path id="Path_1265" data-name="Path 1265" d="M-512.338-128.962a2.167,2.167,0,0,1-2.092-2.262,2.145,2.145,0,0,1,2.335-2.092,2.172,2.172,0,0,1,2.06,2.292A2.189,2.189,0,0,1-512.338-128.962Z" transform="translate(605.873 983.527)"/>
  </g>
</svg>