<svg xmlns="http://www.w3.org/2000/svg" width="34.781" height="51.387" viewBox="0 0 34.781 51.387">
  <g id="Group_933" data-name="Group 933" transform="translate(-339.315 -690.962)">
    <path id="Path_1254" data-name="Path 1254" d="M-738-121.476c-9.383-.037-16.908-10.868-17.36-24.242-.528-15.615,7.846-26.985,17.128-27.143,9.937-.17,17.652,11.885,17.63,25.838C-720.62-133.1-728.347-121.616-738-121.476Zm-15.7-25.749c-.122,12.373,6.881,23.067,15.229,23.255,8.84.2,16.07-9.954,16.186-22.73s-6.794-23.377-15.256-23.7C-746.14-170.718-753.734-160.428-753.7-147.225Z" transform="translate(1094.693 863.824)"/>
    <path id="Path_1255" data-name="Path 1255" d="M-713.413-89.376a13.435,13.435,0,0,1,8.193,2.966c.206.165.505.341.547.554a1.487,1.487,0,0,1-.105,1.088c-.161.194-.671.123-1.026.117-.113,0-.223-.172-.337-.261a11.177,11.177,0,0,0-14.643.136c-.447.366-.874.43-1.273-.01a.829.829,0,0,1,.112-1.278,11.734,11.734,0,0,1,5.528-2.878C-715.433-89.166-714.415-89.236-713.413-89.376Z" transform="translate(1070.083 813.565)"/>
    <path id="Path_1256" data-name="Path 1256" d="M-716.856-128.921a2.209,2.209,0,0,1-2.228-2.189,2.191,2.191,0,0,1,2.2-2.207,2.189,2.189,0,0,1,2.228,2.181A2.21,2.21,0,0,1-716.856-128.921Z" transform="translate(1067.683 839.925)"/>
    <path id="Path_1257" data-name="Path 1257" d="M-669.379-131.109a2.184,2.184,0,0,1-2.214,2.191,2.173,2.173,0,0,1-2.183-2.214,2.151,2.151,0,0,1,2.207-2.183A2.173,2.173,0,0,1-669.379-131.109Z" transform="translate(1033.965 839.924)"/>
  </g>
</svg>