<svg xmlns="http://www.w3.org/2000/svg" width="21.437" height="32.5" viewBox="0 0 21.437 32.5">
  <g id="Group_536" data-name="Group 536" transform="translate(-1061.964 -1390.903)">
    <path id="Path_1061" data-name="Path 1061" d="M1069.537,1400.891a9.834,9.834,0,0,1,19.6-1.327,9.569,9.569,0,0,1-1.474,6.434q-2.513,3.95-5.043,7.89-1.351,2.114-2.7,4.233c-.379.595-.722.592-1.105-.011-2.4-3.769-4.785-7.548-7.206-11.3a12.771,12.771,0,0,1-1.639-3.189A10.144,10.144,0,0,1,1069.537,1400.891Zm9.837,16.179c.08-.116.145-.2.2-.294q.914-1.434,1.827-2.869,2.692-4.214,5.385-8.427a8.58,8.58,0,0,0,1.329-5.887,8.818,8.818,0,1,0-17.329,3.148,11.1,11.1,0,0,0,1.613,3.416c2.28,3.524,4.516,7.077,6.77,10.619C1079.229,1416.868,1079.294,1416.955,1079.374,1417.07Z" transform="translate(-6.716 0)" fill="#116ca5"/>
    <path id="Path_1062" data-name="Path 1062" d="M1072.627,1631.328a30.414,30.414,0,0,1-7.523-.825,9.945,9.945,0,0,1-2.149-.849,1.646,1.646,0,0,1-.1-2.969,6.281,6.281,0,0,1,2.463-.95c.8-.152,1.619-.249,2.432-.348.4-.05.644.122.681.427.039.319-.175.5-.6.575-1.061.175-2.124.344-3.176.563a4.031,4.031,0,0,0-1.043.455,1.582,1.582,0,0,0-.474.42c-.26.334-.237.62.132.82a9.379,9.379,0,0,0,1.623.717,20.882,20.882,0,0,0,4.667.811,38.038,38.038,0,0,0,6.228,0,19.247,19.247,0,0,0,5.462-1.079,4.479,4.479,0,0,0,.885-.476.447.447,0,0,0,.111-.747,2.959,2.959,0,0,0-.87-.659,9.853,9.853,0,0,0-3.026-.744c-.367-.048-.74-.067-1.1-.135a.464.464,0,0,1-.4-.543.451.451,0,0,1,.516-.424,13.143,13.143,0,0,1,4.458.935,3.673,3.673,0,0,1,.954.62,1.555,1.555,0,0,1-.17,2.6,7.431,7.431,0,0,1-2.638,1.061A32.855,32.855,0,0,1,1072.627,1631.328Z" transform="translate(0 -207.926)" fill="#116ca5"/>
    <path id="Path_1063" data-name="Path 1063" d="M1100.247,1441.284c-.5,0-.954.011-1.411,0a1.082,1.082,0,0,1-1.081-1.361,1.27,1.27,0,0,1,.388-.531q2.644-2.167,5.307-4.311a1.313,1.313,0,0,1,1.811.011q2.631,2.13,5.259,4.264a1.016,1.016,0,0,1,.429,1.149,1.174,1.174,0,0,1-1.08.777c-.458.013-.916,0-1.412,0v.39q0,1.853,0,3.706c0,.52-.17.691-.683.692q-3.42,0-6.839,0c-.513,0-.684-.172-.685-.69C1100.246,1444.034,1100.247,1442.686,1100.247,1441.284Zm9.649-1.009.026-.089c-.09-.076-.179-.154-.271-.228-1.648-1.336-3.3-2.667-4.939-4.015a.482.482,0,0,0-.727.007c-1.64,1.346-3.292,2.677-4.94,4.014-.089.072-.173.15-.26.225a12.3,12.3,0,0,0,1.7.081c.636,0,.777.138.777.762q0,1.819,0,3.638v.372h1.478c0-.686-.008-1.357,0-2.028a1.7,1.7,0,1,1,3.4-.056c.027.692.005,1.386.005,2.083h1.292v-.387q0-1.836,0-3.672c0-.563.15-.708.723-.708h1.731Zm-4.758,4.771c0-.268,0-.521,0-.775,0-.392.018-.785-.008-1.176a1.15,1.15,0,0,0-.178-.557.591.591,0,0,0-.722-.2.683.683,0,0,0-.469.7c0,.666,0,1.333,0,2.007Z" transform="translate(-31.694 -38.859)" fill="#116ca5"/>
  </g>
</svg>