<svg xmlns="http://www.w3.org/2000/svg" width="19.956" height="22.026" viewBox="0 0 19.956 22.026">
  <path id="Path_11" data-name="Path 11" d="M470.5,689.268h3.853c0-.532.032-1.047-.006-1.557a3.854,3.854,0,0,1,2.329-3.772,4.268,4.268,0,0,1,5.638,2.038,3.731,3.731,0,0,1,.288,1.647c-.022.537,0,1.075,0,1.635h3.847l2.007,16.323H468.495Zm3.852,1.646a.41.41,0,0,0-.094-.032c-.732,0-1.464-.006-2.2,0-.052,0-.142.094-.149.152q-.395,3.122-.775,6.245-.33,2.68-.661,5.36c-.054.442-.1.885-.157,1.335H486.63c-.537-4.372-1.073-8.729-1.611-13.1h-1.885c-.543,0-.546,0-.541.541a.669.669,0,0,0,.129.536,1.268,1.268,0,0,1-.053,1.782,1.289,1.289,0,0,1-1.891-1.746c.044-.055.105-.118.107-.179.011-.3.005-.606.005-.917h-4.836c0,.232.009.448,0,.664a.69.69,0,0,0,.163.5,1.186,1.186,0,0,1,.205,1.074,1.278,1.278,0,0,1-1.092.957,1.291,1.291,0,0,1-1.119-2.135c.055-.065.133-.139.137-.213C474.362,691.467,474.352,691.188,474.352,690.914Zm6.537-1.654c0-.715.027-1.406-.014-2.094a1.786,1.786,0,0,0-.291-.8,2.583,2.583,0,0,0-3.752-.533,1.969,1.969,0,0,0-.787,1.582q0,.8.008,1.591c0,.084,0,.168,0,.256Z" transform="translate(-468.495 -683.557)" fill="#797979"/>
</svg>