<svg xmlns="http://www.w3.org/2000/svg" width="34.767" height="51.394" viewBox="0 0 34.767 51.394">
  <g id="Group_931" data-name="Group 931" transform="translate(-335.116 -546.606)">
    <path id="Path_1250" data-name="Path 1250" d="M-1058.669-121.5c-9.963-.319-17.478-11.941-17.253-26.684.21-13.779,8.29-24.991,17.8-24.7,9.57.295,17.163,12.1,16.959,26.366C-1041.363-132.606-1049.341-121.2-1058.669-121.5Zm-15.581-25.88c-.179,12.337,6.787,23.1,15.145,23.389,8.837.31,16.072-9.77,16.281-22.682.2-12.615-6.7-23.415-15.151-23.691C-1066.961-170.661-1074.057-160.639-1074.25-147.382Z" transform="translate(1411.043 719.496)"/>
    <path id="Path_1251" data-name="Path 1251" d="M-1033.858-83.724a15.029,15.029,0,0,1-7.856-2.184,7.336,7.336,0,0,1-.717-.491.824.824,0,0,1-.206-1.264.859.859,0,0,1,1.23-.141,18.977,18.977,0,0,0,2.615,1.391,12.887,12.887,0,0,0,12.244-1.327c.484-.325.94-.4,1.352.074.354.411.223.95-.34,1.358A14.252,14.252,0,0,1-1033.858-83.724Z" transform="translate(1386.427 668.148)"/>
    <path id="Path_1252" data-name="Path 1252" d="M-994.309-131.126a2.151,2.151,0,0,1,2.21-2.177,2.182,2.182,0,0,1,2.2,2.2,2.208,2.208,0,0,1-2.224,2.189A2.178,2.178,0,0,1-994.309-131.126Z" transform="translate(1350.303 695.571)"/>
    <path id="Path_1253" data-name="Path 1253" d="M-1035.168-131.1a2.19,2.19,0,0,1-2.234,2.189,2.2,2.2,0,0,1-2.175-2.18,2.175,2.175,0,0,1,2.2-2.213A2.163,2.163,0,0,1-1035.168-131.1Z" transform="translate(1383.992 695.569)"/>
  </g>
</svg>