<svg xmlns="http://www.w3.org/2000/svg" width="16.234" height="16.24" viewBox="0 0 16.234 16.24">
  <g id="Group_1" data-name="Group 1" transform="translate(-633.051 -264.345)">
    <path id="Path_1" data-name="Path 1" d="M641.182,280.585a8.12,8.12,0,1,1,8.1-8.142A8.137,8.137,0,0,1,641.182,280.585Zm-.022-1.635a6.485,6.485,0,1,0-6.473-6.541A6.49,6.49,0,0,0,641.16,278.949Z" transform="translate(0)" fill="#116ca5"/>
    <path id="Path_2" data-name="Path 2" d="M796.924,429.035c-.161,0-.3,0-.43,0a.315.315,0,0,1-.342-.327c-.01-.238-.01-.477,0-.714a.311.311,0,0,1,.344-.325q1.041-.007,2.082,0a.313.313,0,0,1,.339.349q0,2.317,0,4.634a.633.633,0,0,1-.639.634c-.218.007-.436.005-.653,0a.656.656,0,0,1-.7-.727c0-1.1,0-2.191,0-3.287Z" transform="translate(-156.426 -156.643)" fill="#116ca5"/>
    <path id="Path_3" data-name="Path 3" d="M812.246,358.129a1.1,1.1,0,1,1-1.1-1.106A1.1,1.1,0,0,1,812.246,358.129Z" transform="translate(-169.755 -88.89)" fill="#116ca5"/>
  </g>
</svg>