<svg id="Group_2" data-name="Group 2" xmlns="http://www.w3.org/2000/svg" width="34.736" height="28.11" viewBox="0 0 34.736 28.11">
  <path id="Path_4" data-name="Path 4" d="M1330.676,403.487c-.643.27-1.293.5-1.9.808-2.337,1.175-4.659,2.378-6.993,3.559a1.529,1.529,0,0,1-.663.155q-5.523.015-11.046.008h-.393c-.9,2.766-2.568,4.134-4.979,4.139a5.042,5.042,0,0,1-4.888-4.14h-2.491a9.284,9.284,0,0,1,.214-2.812,7.99,7.99,0,0,1,2.988-5.035,6.879,6.879,0,0,1,3.209-1.206,2.5,2.5,0,0,0-2.268-1.621c-1.179-.093-2.368-.064-3.553-.084-.466-.008-.932,0-1.421,0v-13.21h14.869c0,.172,0,.334,0,.5q0,5.379-.005,10.758a.421.421,0,0,0,.343.494,3.182,3.182,0,0,1,2.031,3.732,8.654,8.654,0,0,0-.132,2.165,1.333,1.333,0,0,0,1.163,1.276,3.8,3.8,0,0,0,4.445-2.3,10.258,10.258,0,0,0,.545-4.681c-.024-.356-.061-.711-.094-1.1l1.624-.212c.049.5.115.968.14,1.443a12.176,12.176,0,0,1-.676,5.162,5.513,5.513,0,0,1-6.567,3.256,3.2,3.2,0,0,1-2.29-3.311,9.578,9.578,0,0,1,.207-2.007,1.5,1.5,0,0,0-1.512-1.952c-1.365-.018-2.73-.005-4.1-.005h-1.724c.231.537.451,1.063.688,1.581a.33.33,0,0,0,.227.135,6.618,6.618,0,0,1,5.12,4.162c.165.348.3.712.439,1.07a2.448,2.448,0,0,1,.065.247l-1.513.507c-.239-.528-.441-1.04-.693-1.525a4.719,4.719,0,0,0-4.625-2.864,5.016,5.016,0,0,0-4.755,3.243,26.356,26.356,0,0,0-.8,2.547h.534q10.591,0,21.182-.009a1.894,1.894,0,0,0,.811-.219c2.092-1.051,4.175-2.119,6.261-3.181.122-.062.247-.118.43-.206a3.257,3.257,0,0,0-2.431-.452,4.338,4.338,0,0,0-2.139,1.282l-1.249-1.049a6.232,6.232,0,0,1,3.1-1.9c-.185-.743-.341-1.481-.554-2.2a13.521,13.521,0,0,0-2.115-4.184.777.777,0,0,0-.525-.283,2.508,2.508,0,0,1-2.584-2.554.562.562,0,0,0-.276-.378c-.839-.442-1.69-.859-2.572-1.3l.735-1.478c.879.438,1.732.855,2.575,1.29a.5.5,0,0,0,.554-.039,3.186,3.186,0,0,1,1.208-.478c.888-.072,1.786-.022,2.712-.022v1.639h-1.327c-.331,0-.662,0-.993,0a.864.864,0,0,0-.949.823.847.847,0,0,0,.936.83c.769.006,1.539,0,2.365,0,0,.488-.016.939.007,1.387a1.271,1.271,0,0,0,.159.574,15.611,15.611,0,0,1,2.217,6.09c.041.307.227.3.418.341a4.218,4.218,0,0,1,3.218,2.627C1330.638,403.36,1330.652,403.412,1330.676,403.487Zm-32.533-17.8v9.887h11.523V385.7h-4.932v4.909h-1.672v-4.924Zm3.462,22.346c.077,1.282,1.642,2.484,3.184,2.464,1.505-.02,3.037-1.238,3.084-2.464Z" transform="translate(-1296.49 -384.046)"/>
  <path id="Path_5" data-name="Path 5" d="M1483.393,532.381l1.413-.77a4.946,4.946,0,1,1-8.861,4.377l1.435-.646c1.262,1.84,2.87,2.416,4.48,1.627C1483.545,536.145,1484.081,534.572,1483.393,532.381Z" transform="translate(-1450.68 -510.835)"/>
</svg>