<svg xmlns="http://www.w3.org/2000/svg" width="137" height="150.581" viewBox="0 0 137 150.581">
  <g id="Group_705" data-name="Group 705" transform="translate(-160.807 530.785)">
    <path id="Path_1198" data-name="Path 1198" d="M292.069-397.92a21.224,21.224,0,0,0-2.21-28.214,21.307,21.307,0,0,0-29.436.105,21.225,21.225,0,0,0-.235,30.248,21.225,21.225,0,0,0,27.877,1.865L308.254-373.4a2.832,2.832,0,0,0,4.02.016,2.832,2.832,0,0,0,.016-3.988Zm-6.322-1.157a15.823,15.823,0,0,1-21.1,0,15.765,15.765,0,0,1,0-23.424,15.822,15.822,0,0,1,21.1,0A15.765,15.765,0,0,1,285.748-399.077Z" transform="translate(-49.197 -67.717)" fill="#cecece"/>
    <path id="Path_1199" data-name="Path 1199" d="M272.425-500.5a8.783,8.783,0,0,0-4.737-8.255q-17.877-10.3-35.713-20.663a8.626,8.626,0,0,0-9.321,0Q204.8-519.082,186.9-508.831a8.669,8.669,0,0,0-4.708,8.154c.046,11.2.016,28.143.017,39.338a10.824,10.824,0,0,0,.03,1.179c.006.058.017.115.027.172a2.855,2.855,0,0,0,1.585,3.136c1.573.919,37.289,25.349,38.853,26.283a8.488,8.488,0,0,0,9.227,0c7.757-4.485,13.887-8,21.655-12.471l-3.982-4.046c-6.666,3.835-11.695,6.723-18.36,10.56-.329.189-.672.354-1.117.587-.022-.467-.053-.809-.053-1.151,0-5.513,0-12.359,0-17.872a25.563,25.563,0,0,1-5.529.381c0,5.342,0,12.018,0,17.36v1.358c-1.273-.734-30.743-20.958-36.882-25.055,0-.156,0-.313,0-.468.007-10.372.005-26.5.006-36.87v-1.408c.495.256.806.4,1.1.574,4.8,2.77,11.522,6.577,16.322,9.348a25.355,25.355,0,0,1,3.137-4.534c-4.91-2.835-11.744-6.706-16.654-9.542-.332-.191-.654-.4-1.142-.7,5.16-2.974,10.134-5.859,15.142-8.684l6.006-3.493,6.793-3.913c2.383-1.373,4.782-2.719,7.141-4.132a3.246,3.246,0,0,1,3.616.016q17.047,9.906,34.118,19.771c.239.138.463.3.808.531-.613.36-1.123.662-1.636.958q-6.588,3.8-13.173,7.615c-.076.044-.149.083-.221.12l-4.551,2.621a25.262,25.262,0,0,1,2.8,4.729c5.715-3.3,12.9-7.44,18.611-10.739.275-.159.561-.3,1.056-.556v1.249c0,12.979-.016,25.957.019,38.936a3.749,3.749,0,0,1-2.1,3.628c-2.514,1.437-3.522,1.971-6.034,3.412l3.982,4.045c2.158-1.239,2.809-1.576,4.968-2.813a8.619,8.619,0,0,0,4.644-8.085Q272.368-479.9,272.425-500.5Z" transform="translate(0 0)" fill="#cecece"/>
    <path id="Path_1200" data-name="Path 1200" d="M310.933-388.018l-5.537,5.537-5.537-5.537-1.824,1.824,5.537,5.537-5.536,5.536,1.824,1.825,5.536-5.536,5.536,5.536,1.824-1.824-5.536-5.536,5.537-5.537Z" transform="translate(-79.398 -97.85)" fill="#cecece"/>
    <text id="No_product_found_" data-name="No product found !" transform="translate(160.807 -384.204)" fill="#b4b4b4" font-size="16" font-family="SegoeUI, Segoe UI"><tspan x="0" y="0">No product found !</tspan></text>
  </g>
</svg>
